<svg height="24" width="24" xmlns="http://www.w3.org/2000/svg"><g transform="translate(0 -1028.4)"><path d="m5 1030.4c-1.1046 0-2 .9-2 2v8 4 6c0 1.1.8954 2 2 2h14c1.105 0 2-.9 2-2v-6-4-4l-6-6z" fill="#95a5a6"/><path d="m5 1029.4c-1.1046 0-2 .9-2 2v8 4 6c0 1.1.8954 2 2 2h14c1.105 0 2-.9 2-2v-6-4-4l-6-6z" fill="#bdc3c7"/><path d="m21 1035.4-6-6v4c0 1.1.895 2 2 2z" fill="#95a5a6"/></g><path d="m-7.2222 13.806c0-.209-.0729-.386-.2187-.532l-1.625-1.625c-.1459-.145-.323-.218-.5313-.218-.2188 0-.4058.083-.5628.25.016.015.065.065.149.148.0831.078.1378.133.1638.164.0312.031.0703.081.1172.149.0521.067.0859.135.1016.203.0208.062.0312.133.0312.211 0 .208-.0729.385-.2187.531-.1459.146-.3231.219-.5311.219-.078 0-.151-.008-.219-.024-.062-.021-.128-.054-.195-.101-.068-.052-.117-.091-.149-.117-.031-.032-.088-.089-.172-.172-.078-.084-.125-.133-.14-.149-.172.162-.258.352-.258.571 0 .208.073.385.219.531l1.6091 1.617c.1406.141.3177.211.5313.211.2083 0 .3854-.068.5312-.203l1.1485-1.141c.1458-.146.2187-.32.2187-.523m-5.4918-5.5081c0-.2083-.073-.3854-.219-.5312l-1.61-1.6172c-.145-.1459-.322-.2188-.531-.2188-.203 0-.38.0703-.531.211l-1.148 1.1406c-.146.1458-.219.3203-.219.5234 0 .2084.073.3854.219.5313l1.625 1.625c.14.141.317.211.531.211.219 0 .406-.081.562-.2423-.015-.0156-.065-.0625-.148-.1406-.083-.0833-.141-.1406-.172-.1719-.026-.0312-.065-.0807-.117-.1484-.047-.0677-.081-.1328-.102-.1953-.015-.0677-.023-.1406-.023-.2188 0-.2083.073-.3854.219-.5312.145-.1459.322-.2188.531-.2188.078 0 .148.0104.211.0313.067.0156.135.0495.203.1015.068.0469.117.086.148.1172.032.0261.086.0808.164.1641.084.0833.133.1328.149.1484.172-.1614.258-.3515.258-.5703m6.3356 3.9141c.4374.437.6562.969.6562 1.594s-.2214 1.153-.6641 1.586l-1.1484 1.14c-.4323.433-.9609.649-1.5859.649-.6303 0-1.1614-.222-1.5934-.664l-1.61-1.618c-.432-.432-.648-.96-.648-1.585 0-.641.229-1.185.687-1.633l-.687-.688c-.448.459-.99.688-1.625.688-.625 0-1.156-.219-1.594-.657l-1.625-1.6245c-.437-.4375-.656-.9688-.656-1.5938s.221-1.1536.664-1.5859l1.148-1.1406c.433-.4323.961-.6485 1.586-.6485.63 0 1.162.2214 1.594.6641l1.609 1.6172c.433.4323.649.9609.649 1.5859 0 .6406-.229 1.1849-.688 1.6328l.688.6873c.448-.458.989-.6873 1.6248-.6873.625 0 1.1562.2183 1.5938.6563z" fill="#7f8c8d" transform="translate(24.074 2)"/></svg>