<svg height="24" width="24" xmlns="http://www.w3.org/2000/svg"><g transform="translate(0 -1028.4)"><path d="m5 1030.4c-1.1046 0-2 .9-2 2v8 4 6c0 1.1.8954 2 2 2h14c1.105 0 2-.9 2-2v-6-4-4l-6-6z" fill="#95a5a6"/><path d="m5 1029.4c-1.1046 0-2 .9-2 2v8 4 6c0 1.1.8954 2 2 2h14c1.105 0 2-.9 2-2v-6-4-4l-6-6z" fill="#bdc3c7"/><path d="m16.996 1035.1v8.8c0 .2-.088.5-.266.7-.177.2-.401.3-.671.4-.271.1-.542.2-.813.3-.266 0-.516.1-.75.1s-.487-.1-.758-.1c-.265-.1-.534-.2-.804-.3-.271-.1-.495-.2-.672-.4s-.266-.5-.266-.7c0-.3.089-.5.266-.7s.401-.4.672-.5c.27-.1.539-.2.804-.3h.758c.547 0 1.047.1 1.5.3v-4.2l-5.9999 1.8v5.6c0 .2-.0886.5-.2656.7-.1771.2-.4011.3-.6719.4s-.5417.2-.8125.3c-.2656 0-.5156.1-.75.1s-.487-.1-.7578-.1c-.2656-.1-.5339-.2-.8047-.3s-.4948-.2-.6719-.4-.2656-.5-.2656-.7c0-.3.0885-.5.2656-.7s.4011-.4.6719-.5.5391-.2.8047-.3h.7578c.5469 0 1.0469.1 1.5.3v-7.6c0-.1.0495-.3.1484-.4.099-.2.2266-.3.3828-.3l6.4997-2h.219c.208 0 .385 0 .531.2.146.1.219.3.219.5" fill="#3498db"/><path d="m21 1035.4-6-6v4c0 1.1.895 2 2 2z" fill="#95a5a6"/></g></svg>