<svg height="24" width="24" xmlns="http://www.w3.org/2000/svg"><g transform="translate(0 -1028.4)"><path d="m5 1030.4c-1.1046 0-2 .9-2 2v8 4 6c0 1.1.8954 2 2 2h14c1.105 0 2-.9 2-2v-6-4-4l-6-6z" fill="#95a5a6"/><path d="m5 1029.4c-1.1046 0-2 .9-2 2v8 4 6c0 1.1.8954 2 2 2h14c1.105 0 2-.9 2-2v-6-4-4l-6-6z" fill="#bdc3c7"/><path d="m7 1033.4h2v14h-2z" fill="#1abc9c"/><path d="m7 4c-.5523 0-1 .4477-1 1v2 1 2 1 2 1 2 1 2c0 .552.4477 1 1 1h2 1 3 1 3c.552 0 1-.448 1-1v-2-1-2-3-3-1-2c0-.5523-.448-1-1-1h-3-1-4zm0 1h2v2h-2zm3 0h3v2h-3zm4 0h3v2h-3zm-7 3h2v2h-2zm3 0h3v2h-3zm4 0h3v2h-3zm-7 3h2v2h-2zm3 0h3v2h-3zm4 0h3v2h-3zm-7 3h2v2h-2zm3 0h3v2h-3zm4 0h3v2h-3zm-7 3h2v2h-2zm3 0h3v2h-3zm4 0h3v2h-3z" fill="#16a085" transform="translate(0 1028.4)"/><path d="m21 1035.4-6-6v4c0 1.1.895 2 2 2z" fill="#95a5a6"/></g></svg>