<svg height="24" width="24" xmlns="http://www.w3.org/2000/svg"><g transform="translate(0 -1028.4)"><path d="m5 1030.4c-1.1046 0-2 .9-2 2v8 4 6c0 1.1.8954 2 2 2h14c1.105 0 2-.9 2-2v-6-4-4l-6-6z" fill="#95a5a6"/><path d="m5 1029.4c-1.1046 0-2 .9-2 2v8 4 6c0 1.1.8954 2 2 2h14c1.105 0 2-.9 2-2v-6-4-4l-6-6z" fill="#bdc3c7"/><path d="m21 1035.4-6-6v4c0 1.1.895 2 2 2z" fill="#95a5a6"/><path d="m12 1041.4c-1.105 0-2 .9-2 2v4c0 1.1.895 2 2 2s2-.9 2-2v-4c0-1.1-.895-2-2-2zm0 1c.552 0 1 .4 1 1 0 .5-.448 1-1 1s-1-.5-1-1c0-.6.448-1 1-1zm0 3c.552 0 1 .4 1 1v1c0 .5-.448 1-1 1s-1-.5-1-1v-1c0-.6.448-1 1-1z" fill="#bdc3c7"/><path d="m10 1029.4v10c0 1.1.895 2 2 2s2-.9 2-2v-10z" fill="#7f8c8d"/><path d="m12 1029.4v1h1v-1zm0 1h-1v1h1zm0 1v1h1v-1zm0 1h-1v1h1zm0 1v1h1v-1zm0 1h-1v1h1zm0 1v1h1v-1zm0 1h-1v1h1zm0 1v1h1v-1zm0 1h-1v1h1zm0 1v1c.552 0 1-.5 1-1z" fill="#95a5a6"/><path d="m11 1029.4v1h1v-1zm0 2v1h1v-1zm0 2v1h1v-1zm0 2v1h1v-1zm0 2v1h1v-1zm0 2c0 .5.448 1 1 1v-1z" fill="#ecf0f1"/><path d="m12 1041.4c-1.105 0-2 .9-2 2v4c0 1.1.895 2 2 2s2-.9 2-2v-4c0-1.1-.895-2-2-2zm0 1c.552 0 1 .4 1 1 0 .5-.448 1-1 1s-1-.5-1-1c0-.6.448-1 1-1zm0 3c.552 0 1 .4 1 1v1c0 .5-.448 1-1 1s-1-.5-1-1v-1c0-.6.448-1 1-1z" fill="#95a5a6"/><path d="m12 1040.4c-1.105 0-2 .9-2 2v4c0 1.1.895 2 2 2s2-.9 2-2v-4c0-1.1-.895-2-2-2zm0 1c.552 0 1 .4 1 1 0 .5-.448 1-1 1s-1-.5-1-1c0-.6.448-1 1-1zm0 3c.552 0 1 .4 1 1v1c0 .5-.448 1-1 1s-1-.5-1-1v-1c0-.6.448-1 1-1z" fill="#ecf0f1"/></g></svg>