<svg height="24" width="24" xmlns="http://www.w3.org/2000/svg"><g transform="translate(0 -1028.4)"><path d="m5 1030.4c-1.1046 0-2 .9-2 2v8 4 6c0 1.1.8954 2 2 2h14c1.105 0 2-.9 2-2v-6-4-4l-6-6z" fill="#c0392b"/><path d="m5 1029.4c-1.1046 0-2 .9-2 2v8 4 6c0 1.1.8954 2 2 2h14c1.105 0 2-.9 2-2v-6-4-4l-6-6z" fill="#e74c3c"/><path d="m21 1035.4-6-6v4c0 1.1.895 2 2 2z" fill="#c0392b"/><path d="m19.112 1039.4h-.29c-.09.1-.601.8-.822 1-.06.1-.15.2-.201.2-.743.9-2.323 2.4-3.271 3.2-.124.1-.244.2-.266.2-.066.1-.698.5-.982.7-.905.6-1.967 1.1-2.792 1.3-1.6281.4-2.8984.3-4.5476-.5-.4984-.2-1.2085-.6-1.5978-.9-.382-.3-.3417-.3-.3411.2v.5l.2578.1c.3307.2 1.0445.6 1.5099.8.3546.2.4651.3.2667.3-.1828-.1-1.2202-.1-1.6188 0h-.4c-.0092 0-.0167.2-.0167.4v.4h.1333c.5736-.2 1.8047-.2 2.3778-.1.6748.1 1.1496.2 1.7199.5 1.0881.5 1.9906 1.5 2.3836 2.5l.08.2h.44.44l-.024-.1c-.141-.6-.537-1.3-1.027-1.8-.322-.4-.8907-.8-1.1148-1h-.0756c-.0364-.1-.4165-.3-.5789-.3-.0924-.1-.1677-.1-.1677-.1 0-.1.07-.1.1555 0 .2135 0 1.0733-.1 1.4625-.2 1.078-.2 2.098-.6 3.129-1.2.37-.2 1.21-.9 1.546-1.1.25-.3.33-.3.228-.2-.036.1-.105.2-.155.3-.049.1-.135.2-.19.3-.778 1.2-1.277 2.7-1.412 4.4-.019.3-.035.6-.035.7v.3h2.332 2.332l-.076-.1c-.42-.6-.941-1.9-1.116-2.8-.144-.7-.187-1.8-.097-2.4.262-1.6 1.155-3 2.689-3.9.158-.1.362-.2.453-.3l.167-.1v-.3c0-.2-.012-.4-.027-.4-.364.2-1.174.7-1.546.9-.199.2-.211.2-.024 0 .268-.3.73-.8 1.221-1.4l.229-.2h-.501z" fill="#ecf0f1"/></g></svg>