<svg height="24" width="24" xmlns="http://www.w3.org/2000/svg"><g transform="translate(0 -1028.4)"><path d="m5 1030.4c-1.1046 0-2 .9-2 2v8 4 6c0 1.1.8954 2 2 2h14c1.105 0 2-.9 2-2v-6-4-4l-6-6z" fill="#8e44ad"/><path d="m5 1029.4c-1.1046 0-2 .9-2 2v8 4 6c0 1.1.8954 2 2 2h14c1.105 0 2-.9 2-2v-6-4-4l-6-6z" fill="#9b59b6"/><path d="m21 1035.4-6-6v4c0 1.1.895 2 2 2z" fill="#8e44ad"/><g fill="#ecf0f1" transform="translate(0 1028.4)"><path d="m10 13v7h1v-2h.938.062c1.381 0 2.5-1.119 2.5-2.5s-1.119-2.5-2.5-2.5h-.062-.938-.5zm1 1h.938.062.031c.815.016 1.469.682 1.469 1.5s-.654 1.484-1.469 1.5h-.031-.062-.938z"/><path d="m15 15v5h1v-2.594c.456-.855 1.179-1.406 2-1.406.173 0 .337.016.5.062v-1.062c-.942 0-1.817.413-2.5 1.094v-1.094z"/></g></g></svg>