<svg height="24" width="24" xmlns="http://www.w3.org/2000/svg"><g transform="translate(0 -1028.4)"><path d="m4 1c-1.1046 0-2 .8954-2 2v3 11 3 1c0 1.105.8954 2 2 2h2 12 2c1.105 0 2-.895 2-2v-1-3-11-3c0-1.1046-.895-2-2-2h-2-12zm-.5 2h1c.2761 0 .5.2238.5.5v1c0 .2762-.2239.5-.5.5h-1c-.2761 0-.5-.2238-.5-.5v-1c0-.2762.2239-.5.5-.5zm16 0h1c.276 0 .5.2238.5.5v1c0 .2762-.224.5-.5.5h-1c-.276 0-.5-.2238-.5-.5v-1c0-.2762.224-.5.5-.5zm-16 3h1c.2761 0 .5.2238.5.5v1c0 .2762-.2239.5-.5.5h-1c-.2761 0-.5-.2238-.5-.5v-1c0-.2762.2239-.5.5-.5zm16 0h1c.276 0 .5.2238.5.5v1c0 .2762-.224.5-.5.5h-1c-.276 0-.5-.2238-.5-.5v-1c0-.2762.224-.5.5-.5zm-16 3h1c.2761 0 .5.2238.5.5v1c0 .276-.2239.5-.5.5h-1c-.2761 0-.5-.224-.5-.5v-1c0-.2762.2239-.5.5-.5zm16 0h1c.276 0 .5.2238.5.5v1c0 .276-.224.5-.5.5h-1c-.276 0-.5-.224-.5-.5v-1c0-.2762.224-.5.5-.5zm-16 3h1c.2761 0 .5.224.5.5v1c0 .276-.2239.5-.5.5h-1c-.2761 0-.5-.224-.5-.5v-1c0-.276.2239-.5.5-.5zm16 0h1c.276 0 .5.224.5.5v1c0 .276-.224.5-.5.5h-1c-.276 0-.5-.224-.5-.5v-1c0-.276.224-.5.5-.5zm-16 3h1c.2761 0 .5.224.5.5v1c0 .276-.2239.5-.5.5h-1c-.2761 0-.5-.224-.5-.5v-1c0-.276.2239-.5.5-.5zm16 0h1c.276 0 .5.224.5.5v1c0 .276-.224.5-.5.5h-1c-.276 0-.5-.224-.5-.5v-1c0-.276.224-.5.5-.5zm-16 3h1c.2761 0 .5.224.5.5v1c0 .276-.2239.5-.5.5h-1c-.2761 0-.5-.224-.5-.5v-1c0-.276.2239-.5.5-.5zm16 0h1c.276 0 .5.224.5.5v1c0 .276-.224.5-.5.5h-1c-.276 0-.5-.224-.5-.5v-1c0-.276.224-.5.5-.5z" fill="#e74c3c" transform="translate(0 1028.4)"/><path d="m2 1040.4v5 3 1c0 1.1.8954 2 2 2h2 12 2c1.105 0 2-.9 2-2v-1-3-5h-1.5c.276 0 .5.2.5.5v1c0 .2-.224.5-.5.5h-1c-.276 0-.5-.3-.5-.5v-1c0-.3.224-.5.5-.5h-15c.2761 0 .5.2.5.5v1c0 .2-.2239.5-.5.5h-1c-.2761 0-.5-.3-.5-.5v-1c0-.3.2239-.5.5-.5zm1.5 3h1c.2761 0 .5.2.5.5v1c0 .2-.2239.5-.5.5h-1c-.2761 0-.5-.3-.5-.5v-1c0-.3.2239-.5.5-.5zm16 0h1c.276 0 .5.2.5.5v1c0 .2-.224.5-.5.5h-1c-.276 0-.5-.3-.5-.5v-1c0-.3.224-.5.5-.5zm-16 3h1c.2761 0 .5.2.5.5v1c0 .2-.2239.5-.5.5h-1c-.2761 0-.5-.3-.5-.5v-1c0-.3.2239-.5.5-.5zm16 0h1c.276 0 .5.2.5.5v1c0 .2-.224.5-.5.5h-1c-.276 0-.5-.3-.5-.5v-1c0-.3.224-.5.5-.5z" fill="#c0392b"/><path d="m5 22v-20.196l17.66 10.098z" fill="#ecf0f1" transform="matrix(.28312 0 0 .29709 8.5844 1036.8)"/></g></svg>