<svg height="24" width="24" xmlns="http://www.w3.org/2000/svg"><g transform="translate(0 -1028.4)"><path d="m5 1030.4c-1.1046 0-2 .9-2 2v8 4 6c0 1.1.8954 2 2 2h14c1.105 0 2-.9 2-2v-6-4-4l-6-6z" fill="#95a5a6"/><path d="m5 1029.4c-1.1046 0-2 .9-2 2v8 4 6c0 1.1.8954 2 2 2h14c1.105 0 2-.9 2-2v-6-4-4l-6-6z" fill="#bdc3c7"/><path d="m13.41 1042.8c.391-.4.586-.9.586-1.4 0-.6-.195-1.1-.586-1.5-.39-.3-.862-.5-1.414-.5s-1.023.2-1.414.5c-.391.4-.5859.9-.5859 1.5 0 .5.1949 1 .5859 1.4s.862.6 1.414.6 1.024-.2 1.414-.6m4.586-2.3v1.7c0 .1-.021.2-.062.2-.042.1-.094.1-.157.1l-1.445.2c-.099.3-.2.6-.305.8.183.2.461.6.836 1 .052.1.078.2.078.2 0 .1-.023.2-.07.2-.141.2-.398.5-.773.9-.375.3-.62.5-.735.5-.062 0-.13 0-.203-.1l-1.078-.8c-.229.1-.466.2-.711.3-.083.7-.159 1.2-.226 1.4-.037.2-.131.3-.282.3h-1.734c-.073 0-.138-.1-.195-.1-.052 0-.081-.1-.086-.2l-.219-1.4c-.255-.1-.49-.2-.7032-.3l-1.1016.8c-.0521.1-.1172.1-.1953.1-.0729 0-.138 0-.1953-.1-.6563-.6-1.0859-1-1.2891-1.3-.0364 0-.0547-.1-.0547-.2 0 0 .0209-.1.0625-.2.0782-.1.211-.2.3985-.5.1875-.2.3281-.4.4219-.5-.1407-.3-.2474-.5-.3204-.8l-1.4296-.2c-.0678 0-.1224 0-.1641-.1s-.0625-.1-.0625-.2v-1.7c0-.1.0208-.1.0625-.2s.0911-.1.1484-.1l1.4532-.2c.0729-.3.1744-.5.3046-.7-.2083-.3-.4869-.7-.8359-1.1-.0521-.1-.0781-.1-.0781-.2s.0234-.1.0703-.2c.1354-.2.3906-.5.7656-.8.3802-.4.6276-.6.7422-.6.0677 0 .1354 0 .2031.1l1.0782.8c.2288-.1.4658-.2.7108-.3.083-.7.159-1.2.227-1.4.036-.2.13-.2.281-.2h1.734.188c.057.1.088.1.094.2l.218 1.4c.255.1.49.2.703.3l1.11-.8c.047-.1.109-.1.187-.1.068 0 .133 0 .196.1.671.6 1.101 1.1 1.289 1.3.036.1.054.1.054.2s-.02.1-.062.2c-.078.1-.211.3-.399.5-.187.2-.328.4-.421.5.135.3.242.6.32.8l1.43.2c.067 0 .122.1.164.1.041.1.062.1.062.2" fill="#7f8c8d"/><path d="m21 1035.4-6-6v4c0 1.1.895 2 2 2z" fill="#95a5a6"/></g></svg>