<svg height="24" width="24" xmlns="http://www.w3.org/2000/svg"><g transform="translate(0 -1028.4)"><path d="m5 1030.4c-1.1046 0-2 .9-2 2v8 4 6c0 1.1.8954 2 2 2h14c1.105 0 2-.9 2-2v-6-4-4l-6-6z" fill="#e67e22"/><path d="m5 1029.4c-1.1046 0-2 .9-2 2v8 4 6c0 1.1.8954 2 2 2h14c1.105 0 2-.9 2-2v-6-4-4l-6-6z" fill="#f39c12"/><path d="m21 1035.4-6-6v4c0 1.1.895 2 2 2z" fill="#e67e22"/><g fill="#ecf0f1"><path d="m17 1044.4h1v4h-1z"/><path d="m13 13-2.062 7h1.031l.593-2h1.907l.593 2h1.032l-2.063-6.969v-.031zm.5 1.781.656 2.219h-1.312z" transform="translate(0 1028.4)"/><path d="m18 13.5a.5.5 0 1 1 -1 0 .5.5 0 1 1 1 0z" transform="matrix(1.1875 0 0 1.1875 -3.2969 1027)"/></g></g></svg>