<svg height="24" width="24" xmlns="http://www.w3.org/2000/svg"><g transform="translate(0 -1028.4)"><path d="m5 1030.4c-1.1046 0-2 .9-2 2v1h2.0938c.2038-.6.7504-1 1.4062-1 .8284 0 1.5.6 1.5 1.5 0 .8-.6716 1.5-1.5 1.5-.6558 0-1.2024-.5-1.4062-1h-2.0938v4h2.0938c.2038-.6.7504-1 1.4062-1 .8284 0 1.5.6 1.5 1.5 0 .8-.6716 1.5-1.5 1.5-.6558 0-1.2024-.5-1.4062-1h-2.0938v1 3h2.0938c.2038-.6.7504-1 1.4062-1 .8284 0 1.5.6 1.5 1.5 0 .8-.6716 1.5-1.5 1.5-.6558 0-1.2024-.5-1.4062-1h-2.0938v4h2.0938c.2038-.6.7504-1 1.4062-1 .8284 0 1.5.6 1.5 1.5 0 .8-.6716 1.5-1.5 1.5-.6558 0-1.2024-.5-1.4062-1h-2.0938v1c0 1.1.8954 2 2 2h14c1.105 0 2-.9 2-2v-6-4-4l-6-6z" fill="#95a5a6"/><path d="m5 1c-1.1046 0-2 .8954-2 2v1h2.0938c.2038-.5864.7504-1 1.4062-1 .8284 0 1.5.6716 1.5 1.5s-.6716 1.5-1.5 1.5c-.6558 0-1.2024-.4136-1.4062-1h-2.0938v4h2.0938c.2038-.5864.7504-1 1.4062-1 .8284 0 1.5.6716 1.5 1.5 0 .828-.6716 1.5-1.5 1.5-.6558 0-1.2024-.414-1.4062-1h-2.0938v1 3h2.0938c.2038-.586.7504-1 1.4062-1 .8284 0 1.5.672 1.5 1.5s-.6716 1.5-1.5 1.5c-.6558 0-1.2024-.414-1.4062-1h-2.0938v4h2.0938c.2038-.586.7504-1 1.4062-1 .8284 0 1.5.672 1.5 1.5s-.6716 1.5-1.5 1.5c-.6558 0-1.2024-.414-1.4062-1h-2.0938v1c0 1.105.8954 2 2 2h14c1.105 0 2-.895 2-2v-6-4-4l-6-6z" fill="#bdc3c7" transform="translate(0 1028.4)"/><path d="m21 1035.4-6-6v4c0 1.1.895 2 2 2z" fill="#95a5a6"/></g></svg>