<svg height="24" width="24" xmlns="http://www.w3.org/2000/svg"><g transform="translate(0 -1028.4)"><path d="m5 1030.4c-1.1046 0-2 .9-2 2v8 4 6c0 1.1.8954 2 2 2h14c1.105 0 2-.9 2-2v-6-4-4l-6-6z" fill="#8e44ad"/><path d="m5 1029.4c-1.1046 0-2 .9-2 2v8 4 6c0 1.1.8954 2 2 2h14c1.105 0 2-.9 2-2v-6-4-4l-6-6z" fill="#9b59b6"/><path d="m21 1035.4-6-6v4c0 1.1.895 2 2 2z" fill="#8e44ad"/><g fill="#ecf0f1"><path d="m17 14v2h-1c-1.105 0-2 .895-2 2s.895 2 2 2h1 1v-6zm-1 3h1v2h-1c-.552 0-1-.448-1-1s.448-1 1-1z" transform="translate(0 1028.4)"/><path d="m12 1041.4h1v7h-1z"/></g></g></svg>