<svg height="24" width="24" xmlns="http://www.w3.org/2000/svg"><g transform="translate(0 -1028.4)"><path d="m5 1030.4c-1.1046 0-2 .9-2 2v8 4 6c0 1.1.8954 2 2 2h14c1.105 0 2-.9 2-2v-6-4-4l-6-6z" fill="#95a5a6"/><path d="m5 1029.4c-1.1046 0-2 .9-2 2v8 4 6c0 1.1.8954 2 2 2h14c1.105 0 2-.9 2-2v-6-4-4-4c0-1.1-.895-2-2-2h-4z" fill="#bdc3c7"/><path d="m5 1030.4v10 2 2l2.5-2 2.5 2v-2-2-10z" fill="#95a5a6"/><path d="m5 1030.4v9 2 2l2.5-2 2.5 2v-2-2-9z" fill="#e74c3c"/><path d="m6 1029.4c-.5523 0-1 .4-1 1h2 1 2c0-.6-.4477-1-1-1z" fill="#c0392b"/></g></svg>