<svg height="24" width="24" xmlns="http://www.w3.org/2000/svg"><g transform="translate(0 -1028.4)"><path d="m5 1030.4c-1.1046 0-2 .9-2 2v8 4 6c0 1.1.8954 2 2 2h14c1.105 0 2-.9 2-2v-6-4-4l-6-6z" fill="#95a5a6"/><path d="m5 1029.4c-1.1046 0-2 .9-2 2v8 4 6c0 1.1.8954 2 2 2h14c1.105 0 2-.9 2-2v-6-4-4l-6-6z" fill="#bdc3c7"/><path d="m14.479 990.91h-3.607l-.721.89-.8247.99c-.1603.21-.2777.4-.3521.57-.0573.14-.0859.27-.0859.4 0 .14.0716.26.2147.38.1489.12.3922.19.73.2v.37h-3.5154v-.37c.3092-.05.7071-.16.9475-.32.3206-.23.5572-.5 1.1584-1.21l7.7775-10.45h.646v9.93c-.017.5.028.79.028.89 0 .39.078.68.232.85.16.18.424.28.79.31l.003.37h-5.265v-.36c.498-.04 1.014-.09 1.088-.13.161-.08.468-.21.599-.46.132-.26.39-.75.419-1.38v-1.47m0-.95v-3.8l-3.159 3.8z" fill="#34495e" transform="scale(.94973 1.0529)"/><path d="m21 1035.4-6-6v4c0 1.1.895 2 2 2z" fill="#95a5a6"/></g></svg>