<svg height="24" width="24" xmlns="http://www.w3.org/2000/svg"><g transform="translate(0 -1028.4)"><g><path d="m5 1030.4c-1.1046 0-2 .9-2 2v8 4 6c0 1.1.8954 2 2 2h14c1.105 0 2-.9 2-2v-6-4-4l-6-6z" fill="#95a5a6"/><path d="m5 1029.4c-1.1046 0-2 .9-2 2v8 4 6c0 1.1.8954 2 2 2h14c1.105 0 2-.9 2-2v-6-4-4l-6-6z" fill="#bdc3c7"/><path d="m21 1035.4-6-6v4c0 1.1.895 2 2 2z" fill="#95a5a6"/></g><path d="m9.3973 1044.9-.3906.4h-.1797-.1797l-3.6406-3.7c-.0521 0-.0781-.1-.0781-.2 0 0 .026-.1.0781-.1l3.6406-3.7c.0521 0 .112-.1.1797-.1s.1276.1.1797.1l.3906.4c.0521.1.0781.1.0781.2 0 0-.026.1-.0781.2l-3.0703 3 3.0703 3.1c.0521.1.0781.1.0781.2 0 0-.026.1-.0781.2m4.6177-8.4-2.915 10.1c-.02.1-.062.1-.125.2h-.179l-.485-.2c-.067 0-.119 0-.156-.1-.031 0-.036-.1-.015-.2l2.914-10c.02-.1.059-.2.117-.2h.187l.485.1c.067 0 .117.1.148.1.037.1.044.2.024.2m5.132 5.1-3.64 3.7h-.18-.18l-.39-.4c-.052-.1-.078-.2-.078-.2 0-.1.026-.1.078-.2l3.07-3.1-3.07-3c-.052-.1-.078-.2-.078-.2 0-.1.026-.1.078-.2l.39-.4c.052 0 .112-.1.18-.1s.128.1.18.1l3.64 3.7c.052 0 .078.1.078.1 0 .1-.026.2-.078.2" fill="#16a085"/></g></svg>