<svg height="24" width="24" xmlns="http://www.w3.org/2000/svg"><g transform="translate(0 -1028.4)"><path d="m23 1048.4c0 1.1-.895 2-2 2h-8-4-6c-1.1046 0-2-.9-2-2v-14c0-1.1.8954-2 2-2h6 4 4 4c1.105 0 2 .9 2 2v4z" fill="#95a5a6"/><path d="m1 1047.4c0 1.1.8954 2 2 2h8 4 6c1.105 0 2-.9 2-2v-14c0-1.1-.895-2-2-2h-6-4-4-4c-1.1046 0-2 .9-2 2v4z" fill="#bdc3c7"/><path d="m3 1033.4h18v14h-18z" fill="#f39c12"/><path d="m16.625 8.625-10.344 10.375h14.719v-6z" fill="#e67e22" transform="translate(0 1028.4)"/><path d="m8 8a2 2 0 1 1 -4 0 2 2 0 1 1 4 0z" fill="#f1c40f" transform="matrix(1.75 0 0 1.75 -3 1024.4)"/><path d="m8.0938 11.094-5.0938 5.094v2.812h13z" fill="#d35400" transform="translate(0 1028.4)"/></g></svg>