<svg height="24" width="24" xmlns="http://www.w3.org/2000/svg"><g transform="translate(0 -1028.4)"><path d="m5 1030.4c-1.1046 0-2 .9-2 2v8 4 6c0 1.1.8954 2 2 2h14c1.105 0 2-.9 2-2v-6-4-4l-6-6z" fill="#2980b9"/><path d="m5 1029.4c-1.1046 0-2 .9-2 2v8 4 6c0 1.1.8954 2 2 2h14c1.105 0 2-.9 2-2v-6-4-4l-6-6z" fill="#3498db"/><path d="m21 1035.4-6-6v4c0 1.1.895 2 2 2z" fill="#2980b9"/><g fill="#ecf0f1" transform="translate(0 1028.4)"><path d="m10 13v7h1v-2h.938.062c1.381 0 2.5-1.119 2.5-2.5s-1.119-2.5-2.5-2.5h-.062-.938-.5zm1 1h.938.062.031c.815.016 1.469.682 1.469 1.5s-.654 1.484-1.469 1.5h-.031-.062-.938z"/><path d="m16.5 15c-.828 0-1.5.672-1.5 1.5s.672 1.5 1.5 1.5h.5.5c.276 0 .5.224.5.5s-.224.5-.5.5h-.5-1.5c-.276 0-.5.224-.5.5s.224.5.5.5h1.5.5c.828 0 1.5-.672 1.5-1.5s-.672-1.5-1.5-1.5h-.5-.5c-.276 0-.5-.224-.5-.5s.224-.5.5-.5h.5 1 .5c.276 0 .5-.224.5-.5s-.224-.5-.5-.5h-.5-1z"/></g></g></svg>