<svg height="24" width="24" xmlns="http://www.w3.org/2000/svg"><g transform="translate(0 -1028.4)"><path d="m5 1030.4c-1.1046 0-2 .9-2 2v8 4 6c0 1.1.8954 2 2 2h14c1.105 0 2-.9 2-2v-6-4-4l-6-6z" fill="#95a5a6"/><path d="m5 1029.4c-1.1046 0-2 .9-2 2v8 4 6c0 1.1.8954 2 2 2h14c1.105 0 2-.9 2-2v-6-4-4l-6-6z" fill="#bdc3c7"/><path d="m15 1039.4v4h4c0-2.2-1.791-4-4-4z" fill="#e67e22"/><path d="m14 1040.4c-2.209 0-4 1.8-4 4s1.791 4 4 4 4-1.8 4-4h-4z" fill="#d35400"/><g fill="#95a5a6"><path d="m6 1034.4h12v1h-12z"/><path d="m6 1040.4h3v2h-3z"/><path d="m6 1043.4h3v2h-3z"/><path d="m6 1046.4h3v2h-3z"/><path d="m6 1036.4h12v1h-12z"/><path d="m21 1035.4-6-6v4c0 1.1.895 2 2 2z"/></g></g></svg>