<svg height="24" width="24" xmlns="http://www.w3.org/2000/svg"><g transform="translate(0 -1028.4)"><path d="m2 1033.4c-1.1046 0-2 .9-2 2v14c0 1.1.89543 2 2 2h20c1.105 0 2-.9 2-2v-14c0-1.1-.895-2-2-2z" fill="#2980b9"/><path d="m3 1029.4c-1.1046 0-2 .9-2 2v14c0 1.1.8954 2 2 2h11 5 2c1.105 0 2-.9 2-2v-9-3c0-1.1-.895-2-2-2h-2-5-1l-3-2z" fill="#2980b9"/><path d="m23 1042.4v-8c0-1.1-.895-2-2-2h-11-5-2c-1.1046 0-2 .9-2 2v8z" fill="#bdc3c7"/><path d="m2 1033.4c-1.1046 0-2 .9-2 2v6 1 6c0 1.1.89543 2 2 2h20c1.105 0 2-.9 2-2v-6-1-6c0-1.1-.895-2-2-2z" fill="#3498db"/><path d="m7.75 1035.4c-.2083 0-.3854 0-.5312.2-.1459.1-.2188.3-.2188.5v9.3 2.2c0 .2.0729.4.2188.5.1458.2.3229.3.5312.3h4.25 5.25c.208 0 .385-.1.531-.3.146-.1.219-.3.219-.5v-2.2-5.8c0-.2-.052-.4-.156-.7-.104-.2-.229-.4-.375-.6l-2.438-2.4c-.146-.2-.344-.3-.593-.4-.251-.1-.48-.1-.688-.1h-1.75zm.25 1h4 1v3.2c0 .2.073.4.219.5.146.2.323.3.531.3h3.25v5 2h-5-4v-2zm6 0c.151.1.25.1.312.2l2.438 2.4c.062.1.135.2.188.4h-2.938zm-4.75 5h-.1875c-.0469.1-.0625.1-.0625.2v.5c0 .1.0156.2.0625.2s.1146.1.1875.1h2.75 3.75c.073 0 .141-.1.188-.1.046 0 .062-.1.062-.2v-.5c0-.1-.016-.1-.062-.2h-.188-3.75zm0 2h-.1875c-.0469.1-.0625.1-.0625.2v.5c0 .1.0156.2.0625.2s.1146.1.1875.1h2.75 3.75c.073 0 .141-.1.188-.1.046 0 .062-.1.062-.2v-.5c0-.1-.016-.1-.062-.2h-.188-3.75zm0 2h-.1875c-.0469.1-.0625.1-.0625.2v.5c0 .1.0156.2.0625.2s.1146.1.1875.1h2.75 3.75c.073 0 .141-.1.188-.1.046 0 .062-.1.062-.2v-.5c0-.1-.016-.1-.062-.2h-.188-3.75z" fill="#2980b9"/></g></svg>