<svg height="24" width="24" xmlns="http://www.w3.org/2000/svg"><g transform="translate(0 -1028.4)"><path d="m2 1033.4c-1.1046 0-2 .9-2 2v14c0 1.1.89543 2 2 2h20c1.105 0 2-.9 2-2v-14c0-1.1-.895-2-2-2z" fill="#2980b9"/><path d="m3 1029.4c-1.1046 0-2 .9-2 2v14c0 1.1.8954 2 2 2h11 5 2c1.105 0 2-.9 2-2v-9-3c0-1.1-.895-2-2-2h-2-5-1l-3-2z" fill="#2980b9"/><path d="m23 1042.4v-8c0-1.1-.895-2-2-2h-11-5-2c-1.1046 0-2 .9-2 2v8z" fill="#bdc3c7"/><path d="m2 1033.4c-1.1046 0-2 .9-2 2v6 1 6c0 1.1.89543 2 2 2h20c1.105 0 2-.9 2-2v-6-1-6c0-1.1-.895-2-2-2z" fill="#3498db"/><path d="m5.25 1036.4c-.3438 0-.6302.1-.875.3-.2448.3-.375.6-.375.9v9.5c0 .4.1302.6.375.9.2448.2.5312.4.875.4h11.75 1 .75c.344 0 .63-.2.875-.4.245-.3.375-.5.375-.9v-9.5c0-.3-.13-.6-.375-.9-.245-.2-.531-.3-.875-.3h-.75-1zm0 1h11.75 1 .75.188c.052.1.062.1.062.2v9.5c0 .1-.01.1-.062.2-.047 0-.12.1-.188.1h-.75-1-11.75c-.0677 0-.1354-.1-.1875-.1-.0469-.1-.0625-.1-.0625-.2v-9.5c0-.1.0156-.1.0625-.2zm2.25 1c-.4167 0-.7708.1-1.0625.4s-.4375.6-.4375 1.1c0 .4.1458.7.4375 1s.6458.5 1.0625.5.7708-.2 1.0625-.5.4375-.6.4375-1c0-.5-.1458-.8-.4375-1.1s-.6458-.4-1.0625-.4zm6.25 1.2-4 4-1.25-1.2-2.5 2.5v1.5h12v-2z" fill="#2980b9"/></g></svg>