<svg height="24" width="24" xmlns="http://www.w3.org/2000/svg"><g transform="translate(0 -1028.4)"><path d="m2 1033.4c-1.1046 0-2 .9-2 2v14c0 1.1.89543 2 2 2h20c1.105 0 2-.9 2-2v-14c0-1.1-.895-2-2-2z" fill="#2980b9"/><path d="m3 1029.4c-1.1046 0-2 .9-2 2v14c0 1.1.8954 2 2 2h11 5 2c1.105 0 2-.9 2-2v-9-3c0-1.1-.895-2-2-2h-2-5-1l-3-2z" fill="#2980b9"/><path d="m23 1042.4v-8c0-1.1-.895-2-2-2h-11-5-2c-1.1046 0-2 .9-2 2v8z" fill="#bdc3c7"/><path d="m2 1033.4c-1.1046 0-2 .9-2 2v6 1 6c0 1.1.89543 2 2 2h20c1.105 0 2-.9 2-2v-6-1-6c0-1.1-.895-2-2-2z" fill="#3498db"/></g><path d="m17 7.75v8.75c0 .26-.089.492-.266.695s-.401.362-.672.477c-.27.109-.541.193-.812.25-.266.052-.516.078-.75.078s-.487-.026-.758-.078c-.265-.057-.534-.141-.804-.25-.271-.115-.495-.274-.672-.477s-.266-.435-.266-.695.089-.492.266-.695.401-.36.672-.469c.27-.115.539-.198.804-.25.271-.057.524-.086.758-.086.547 0 1.047.102 1.5.305v-4.196l-6 1.852v5.539c0 .26-.0885.492-.2656.695s-.4011.36-.6719.469c-.2708.115-.5417.198-.8125.25-.2656.057-.5156.086-.75.086s-.487-.029-.7578-.086c-.2656-.052-.5339-.135-.8047-.25-.2708-.109-.4948-.266-.6719-.469s-.2656-.435-.2656-.695.0885-.492.2656-.695.4011-.36.6719-.469c.2708-.115.5391-.198.8047-.25.2708-.057.5234-.086.7578-.086.5469 0 1.0469.102 1.5.305v-7.555c0-.1614.0495-.3073.1484-.4375.099-.1354.2266-.2292.3828-.2813l6.4998-2c.063-.0208.136-.0312.219-.0312.208 0 .385.0729.531.2188.146.1458.219.3229.219.5312" fill="#2980b9"/></svg>