<svg height="24" width="24" xmlns="http://www.w3.org/2000/svg"><g transform="translate(0 -1028.4)"><path d="m2 1033.4c-1.1046 0-2 .9-2 2v14c0 1.1.89543 2 2 2h20c1.105 0 2-.9 2-2v-14c0-1.1-.895-2-2-2z" fill="#2980b9"/><path d="m3 1029.4c-1.1046 0-2 .9-2 2v14c0 1.1.8954 2 2 2h11 5 2c1.105 0 2-.9 2-2v-9-3c0-1.1-.895-2-2-2h-2-5-1l-3-2z" fill="#2980b9"/><path d="m23 1042.4v-8c0-1.1-.895-2-2-2h-11-5-2c-1.1046 0-2 .9-2 2v8z" fill="#bdc3c7"/><path d="m2 1033.4c-1.1046 0-2 .9-2 2v6 1 6c0 1.1.89543 2 2 2h20c1.105 0 2-.9 2-2v-6-1-6c0-1.1-.895-2-2-2z" fill="#3498db"/><path d="m6.25 1035.4c-.3438 0-.6302.1-.875.3-.2448.3-.375.6-.375.9v10.5c0 .4.1302.6.375.9.2448.2.5312.4.875.4h4.75 2 4.75c.344 0 .63-.2.875-.4.245-.3.375-.5.375-.9v-10.5c0-.3-.13-.6-.375-.9-.245-.2-.531-.3-.875-.3h-4.75-2zm.25 1h1c.1354 0 .2448 0 .3438.1.0989.1.1562.2.1562.4v1c0 .1-.0573.2-.1562.3-.099.1-.2084.2-.3438.2h-1c-.1354 0-.2448-.1-.3438-.2-.0989-.1-.1562-.2-.1562-.3v-1c0-.2.0573-.3.1562-.4.099-.1.2084-.1.3438-.1zm3 0h1.5 2 1.5c.135 0 .245 0 .344.1s.156.2.156.4v4c0 .1-.057.2-.156.3s-.209.2-.344.2h-1.5-2-1.5c-.1354 0-.2448-.1-.3438-.2-.0989-.1-.1562-.2-.1562-.3v-4c0-.2.0573-.3.1562-.4.099-.1.2084-.1.3438-.1zm7 0h1c.135 0 .245 0 .344.1s.156.2.156.4v1c0 .1-.057.2-.156.3s-.209.2-.344.2h-1c-.135 0-.245-.1-.344-.2s-.156-.2-.156-.3v-1c0-.2.057-.3.156-.4s.209-.1.344-.1zm-10 3h1c.1354 0 .2448 0 .3438.1.0989.1.1562.2.1562.4v1c0 .1-.0573.2-.1562.3-.099.1-.2084.2-.3438.2h-1c-.1354 0-.2448-.1-.3438-.2-.0989-.1-.1562-.2-.1562-.3v-1c0-.2.0573-.3.1562-.4.099-.1.2084-.1.3438-.1zm10 0h1c.135 0 .245 0 .344.1s.156.2.156.4v1c0 .1-.057.2-.156.3s-.209.2-.344.2h-1c-.135 0-.245-.1-.344-.2s-.156-.2-.156-.3v-1c0-.2.057-.3.156-.4s.209-.1.344-.1zm-10 3h1c.1354 0 .2448 0 .3438.1.0989.1.1562.2.1562.4v1c0 .1-.0573.2-.1562.3-.099.1-.2084.2-.3438.2h-1c-.1354 0-.2448-.1-.3438-.2-.0989-.1-.1562-.2-.1562-.3v-1c0-.2.0573-.3.1562-.4.099-.1.2084-.1.3438-.1zm3 0h1.5 2 1.5c.135 0 .245 0 .344.1s.156.2.156.4v4c0 .1-.057.2-.156.3s-.209.2-.344.2h-1.5-2-1.5c-.1354 0-.2448-.1-.3438-.2-.0989-.1-.1562-.2-.1562-.3v-4c0-.2.0573-.3.1562-.4.099-.1.2084-.1.3438-.1zm7 0h1c.135 0 .245 0 .344.1s.156.2.156.4v1c0 .1-.057.2-.156.3s-.209.2-.344.2h-1c-.135 0-.245-.1-.344-.2s-.156-.2-.156-.3v-1c0-.2.057-.3.156-.4s.209-.1.344-.1zm-10 3h1c.1354 0 .2448 0 .3438.1.0989.1.1562.2.1562.4v1c0 .1-.0573.2-.1562.3-.099.1-.2084.2-.3438.2h-1c-.1354 0-.2448-.1-.3438-.2-.0989-.1-.1562-.2-.1562-.3v-1c0-.2.0573-.3.1562-.4.099-.1.2084-.1.3438-.1zm10 0h1c.135 0 .245 0 .344.1s.156.2.156.4v1c0 .1-.057.2-.156.3s-.209.2-.344.2h-1c-.135 0-.245-.1-.344-.2s-.156-.2-.156-.3v-1c0-.2.057-.3.156-.4s.209-.1.344-.1z" fill="#2980b9"/></g></svg>